<?xml version="1.0" encoding="UTF-8"?>
<!DOCTYPE svg PUBLIC "-//W3C//DTD SVG 1.1//EN" "http://www.w3.org/Graphics/SVG/1.1/DTD/svg11.dtd">
<!-- Creator: CorelDRAW 2018 (64 Bit Versão de avaliação) -->
<svg xmlns="http://www.w3.org/2000/svg" xml:space="preserve" width="42.3332mm" height="38.9466mm" version="1.1" style="shape-rendering:geometricPrecision; text-rendering:geometricPrecision; image-rendering:optimizeQuality; fill-rule:evenodd; clip-rule:evenodd"
viewBox="0 0 4233.32 3894.66"
 xmlns:xlink="http://www.w3.org/1999/xlink">
 <defs>
  <style type="text/css">
   <![CDATA[
    .fil0 {fill:#33CC66}
    .fil1 {fill:#006633;fill-rule:nonzero}
   ]]>
  </style>
 </defs>
 <g id="Camada_x0020_1">
  <metadata id="CorelCorpID_0Corel-Layer"/>
  <g id="_2893063674640">
   <path class="fil0" d="M1032.71 2921.31c-147.96,0.38 -283,4.76 -378.28,177.25 -75.1,135.95 -40.94,318.83 58.81,417.75 159.74,158.37 430.01,138.98 555.03,-73.11 49.04,-83.19 43.78,-125.09 45.31,-236.11 28.28,-18.08 187.39,-68.04 228.44,-73.99 45.11,45.67 48.81,79.24 128.31,115.79 185.54,85.28 407.22,-87.91 340.92,-301 -34.55,-111 -145.34,-204.33 -306.82,-167.75 -61.9,14.01 -113.89,64.19 -139.48,100.6 -45.49,64.7 -35.13,107.37 -42.96,196.53 -35.1,17.9 -191.4,69.22 -229.66,68.83 -41.21,-104.09 -99.11,-163.82 -205.64,-206.01l65.95 -191.99c63.07,-10.32 164.31,-20.95 159.58,-139.92 -3.02,-76.06 -91.79,-152.73 -179.66,-110.25 -54.32,26.25 -83.88,85.39 -69.71,146.27 21.77,93.58 68.59,15.18 12.61,165.72 -11.9,32.01 -27.93,85.86 -42.75,111.39z"/>
   <path class="fil0" d="M1743.46 550.77c-26.62,72.34 -102.68,178.39 -143.12,257.96 -49.65,7.9 -168.64,-29.03 -231.58,98.06 -96.71,195.23 178.25,352.38 301.74,181.71 86.35,-119.34 -14.29,-214.6 -29.42,-248.12 32.12,-76.13 102.1,-170.02 140.36,-249.32 104.35,-15.53 161.61,58.31 303.46,-26.49 38.9,-23.26 60.76,-41.12 88.77,-80.89 35.54,-50.43 32.49,-77.25 57.39,-121.73l251.38 19.04c23.22,52.08 56.14,96.9 127.57,90.38 142.46,-13.02 140.37,-215.15 10.63,-233.43 -87.3,-12.31 -111.27,37.18 -139.93,85.54 -83.69,9.75 -176.53,-8.72 -250.04,-22.46 -3.45,-391.7 -575.4,-397.1 -605.18,-30.36 -11.77,144.97 45.31,209.3 117.97,280.11z"/>
   <path class="fil0" d="M695.23 1928.87c-27.96,60.49 -261.21,391.82 -281.65,411.17 -73.12,-2.71 -118.21,-37.34 -212.43,-3.77 -171.58,61.14 -224.5,319.3 -53.09,437.63 118.57,81.84 261.65,46.53 336.43,-44.81 41.63,-50.86 60.2,-99.61 54.85,-181.62 -6.32,-96.92 -49.03,-120.07 -80.43,-169.23 20.36,-41.87 44.05,-70.29 68.56,-106.04l203.64 -304.35c74.92,-2.77 117.42,35.87 216.03,4.59 172.47,-54.72 239.74,-323.72 48.74,-446.48 -175.29,-112.65 -407.3,30.4 -382.28,241.52 9.56,80.58 47.31,109.62 81.63,161.39z"/>
   <path class="fil0" d="M2416.14 3316.93c-42.82,39.13 -180.43,108.82 -121.16,284.15 83.99,248.45 487.12,152.2 419.66,-130 -12.16,-50.86 -42.49,-93.72 -84.44,-124.29 -58.53,-42.68 -98.95,-34.57 -168.3,-50.08l-48.01 -168.82c19,-22.97 33.01,-33.3 46.85,-49.74l468.56 90.69c17.11,282.6 399.62,121.64 269.84,-70.7 -61.85,-91.65 -174.81,-101.96 -259.07,17.01 -101.21,-1.8 -330.9,-73.4 -457.27,-88.49 -22.58,-257.58 -259.23,-194.07 -291.32,-61.3 -18.45,76.29 37.51,158.54 106.48,173.88 57.08,12.69 71.59,-41.23 118.18,177.69z"/>
   <path class="fil0" d="M1026.96 555.05c-43.65,13.66 -162.97,43.42 -203.95,42.38 -29.41,-47.57 -25.4,-59.8 -78.05,-89.04 -161.16,-89.52 -287.07,67.66 -263.73,187.62 14.58,74.87 88.06,147.69 190.29,140.82 106.23,-7.15 147.5,-86.03 164.93,-183.45l196.39 -46.83c39.58,45.31 87.37,176.71 267.4,141.05 107.57,-21.31 183.41,-128.03 164.28,-257.24 -8.47,-57.12 -43.7,-102.63 -79.68,-132.6 -83.01,-69.17 -342.38,-93.62 -357.88,197.29z"/>
   <path class="fil0" d="M2767.42 906.37c32.17,-12.19 149.68,-27.78 182.64,-30.04 97.01,193.56 312.62,99.93 296.49,-66.1 -15.28,-157.22 -267.22,-200.36 -304.38,12.55 -44.46,11.83 -134.06,23.62 -181.85,18.48 -33.42,-57.66 -34.56,-80.17 -98.94,-121.7 -50.51,-32.57 -107.13,-46.28 -175.35,-32.6 -112.21,22.48 -199.31,130.18 -183.4,261.9 31.99,264.88 457.65,282.24 464.79,-42.49z"/>
   <path class="fil0" d="M474.03 1110.97c-78.14,12.18 -137.98,50.56 -220.23,59.55 -41.84,-28.35 -80.23,-92.81 -169.32,-50.03 -140.03,67.24 -57.72,277.57 82.35,241.96 75.7,-19.24 89.29,-62.18 101.86,-138.05 62.55,-15.38 178.69,-63.43 230.86,-62.07 6.72,60.26 -215.06,402.31 -262.04,521.79 -299.57,-14.38 -281.78,266.96 -133.38,334.84 136.75,62.56 281.51,-60.52 244.47,-206.19 -11.73,-46.15 -39.29,-68.58 -67.85,-98.86 25.73,-70.29 88.99,-174.03 129.43,-247.92 45.22,-82.62 82.65,-161.8 133.22,-245.51 60.66,-14.55 97.59,1.34 140.76,-50.25 30.9,-36.95 36.76,-100.48 3.71,-144.69 -68.26,-91.34 -207.59,-57.3 -213.84,85.43z"/>
   <path class="fil0" d="M1704.36 3546.62c-242.59,110.52 -98.73,400.22 105.14,338.13 88.16,-26.83 142.32,-119.5 112.06,-226.05 -20.18,-71.04 -124.79,-154.18 -217.2,-112.08z"/>
   <path class="fil0" d="M787.19 2216.52c-171.39,60.18 -74.92,303.11 90.17,236.48 67.37,-27.2 86.1,-105.85 64.34,-165.62 -19.9,-54.67 -87.44,-94.43 -154.51,-70.86z"/>
   <path class="fil0" d="M1008.45 1060.06c-53.95,24.31 -93.95,65.81 -71.41,144.22 16.54,57.57 82.75,96.8 147.41,77.18 153.87,-46.66 71.88,-288.01 -76,-221.4z"/>
   <path class="fil0" d="M2813.36 2637.14c-145.84,43.41 -90.01,262.13 63.49,226.45 54.78,-12.72 103.03,-76.97 81.86,-153.9 -14.5,-52.66 -78.99,-92.31 -145.35,-72.55z"/>
   <path class="fil0" d="M354.64 2919.28c-163.5,76.26 -52.54,268.21 80.62,219.46 143.53,-52.55 57.51,-283.9 -80.62,-219.46z"/>
   <path class="fil0" d="M1987.08 795.78c-36.87,22.51 -103.09,52.85 -71.29,150.5 43.49,133.53 282.16,74.59 219.3,-89.13 -17.93,-46.67 -90.68,-96.35 -148.01,-61.37z"/>
  </g>
  <polygon class="fil1" points="1429.44,1284.11 1771.09,1284.11 1771.09,2491.94 1429.44,2491.94 "/>
  <path id="1" class="fil1" d="M2616.56 2516.1c-126.53,0 -240.13,-26.75 -340.78,-80.24 -100.65,-53.49 -179.73,-127.97 -237.25,-223.45 -57.52,-95.47 -86.27,-203.6 -86.27,-324.38 0,-120.79 28.75,-228.92 86.27,-324.39 57.52,-95.48 136.6,-169.96 237.25,-223.45 100.65,-53.49 214.25,-80.24 340.78,-80.24 110.43,0 209.93,19.56 298.51,58.67 88.57,39.11 162.19,95.48 220.86,169.1l-217.41 196.7c-78.22,-94.33 -173.12,-141.49 -284.7,-141.49 -65.57,0 -123.95,14.38 -175.14,43.14 -51.19,28.76 -90.87,69.3 -119.06,121.64 -28.18,52.34 -42.27,112.45 -42.27,180.32 0,67.86 14.09,127.97 42.27,180.31 28.19,52.34 67.87,92.88 119.06,121.64 51.19,28.76 109.57,43.14 175.14,43.14 111.58,0 206.48,-47.16 284.7,-141.49l217.41 196.7c-58.67,73.62 -132.29,129.99 -220.86,169.1 -88.58,39.11 -188.08,58.67 -298.51,58.67z"/>
  <path id="2" class="fil1" d="M3698.43 2516.1c-97.78,0 -192.68,-12.08 -284.7,-36.24 -92.03,-24.15 -166.8,-56.36 -224.32,-96.62l112.16 -251.92c54.07,35.66 116.76,64.41 188.08,86.27 71.32,21.86 141.49,32.78 210.5,32.78 131.14,0 196.71,-32.78 196.71,-98.35 0,-34.51 -18.7,-60.1 -56.08,-76.78 -37.39,-16.68 -97.49,-34.22 -180.31,-52.63 -90.88,-19.55 -166.8,-40.55 -227.76,-62.98 -60.97,-22.43 -113.31,-58.38 -157.02,-107.84 -43.71,-49.46 -65.57,-116.18 -65.57,-200.15 0,-73.62 20.13,-140.05 60.39,-199.3 40.26,-59.24 100.37,-106.11 180.31,-140.62 79.95,-34.51 178.01,-51.77 294.2,-51.77 79.37,0 157.59,8.92 234.66,26.75 77.07,17.83 144.94,44 203.61,78.51l-105.26 253.64c-115.03,-62.11 -226.61,-93.17 -334.74,-93.17 -67.87,0 -117.33,10.06 -148.39,30.19 -31.06,20.13 -46.59,46.3 -46.59,78.51 0,32.21 18.41,56.37 55.22,72.47 36.81,16.11 96.05,32.79 177.72,50.04 92.03,19.56 168.23,40.55 228.63,62.98 60.39,22.43 112.73,58.09 157.01,106.98 44.29,48.89 66.43,115.32 66.43,199.29 0,72.47 -20.13,138.04 -60.39,196.7 -40.26,58.67 -100.65,105.55 -181.17,140.63 -80.52,35.08 -178.3,52.63 -293.33,52.63z"/>
 </g>
</svg>
